<svg width="106" height="30" viewBox="0 0 106 30" fill="none" xmlns="http://www.w3.org/2000/svg">
<g clip-path="url(#clip0_4337_587)">
<path d="M28 15.1667C28 9.2855 22.75 4.4065 15.9495 3.61317C16.1922 3.24567 16.3333 2.80583 16.3333 2.33333C16.3333 1.0465 15.2868 0 14 0C12.7132 0 11.6667 1.0465 11.6667 2.33333C11.6667 2.80583 11.8078 3.24567 12.0505 3.61317C5.25118 4.4065 1.54298e-05 9.28317 1.54298e-05 15.1445C-0.0023179 15.2145 -0.0501512 16.8548 0.934515 17.8768C1.33352 18.291 1.83402 18.543 2.42552 18.6305L3.73568 25.62C3.99468 27.0002 5.19985 28 6.60218 28H21.3955C22.799 28 24.0042 26.999 24.262 25.62L25.5733 18.6305C26.1648 18.543 26.6653 18.291 27.0643 17.8768C28.0502 16.8548 28.0023 15.2145 28 15.1667ZM12.8333 2.33333C12.8333 1.68933 13.3572 1.16667 14 1.16667C14.6428 1.16667 15.1667 1.68933 15.1667 2.33333C15.1667 2.97733 14.6428 3.5 14 3.5C13.3572 3.5 12.8333 2.97733 12.8333 2.33333ZM23.1163 25.4053C22.9612 26.2325 22.2379 26.8333 21.3955 26.8333H6.60335C5.76218 26.8333 5.03885 26.2325 4.88368 25.4053L3.62018 18.6667H4.86852C5.35035 20.0247 6.64651 21 8.16785 21C9.38468 21 10.4568 20.3758 11.0845 19.432C11.7122 20.3758 12.7843 21 14.0012 21C15.218 21 16.2902 20.3758 16.9178 19.432C17.5455 20.3758 18.6177 21 19.8345 21C21.3558 21 22.652 20.0247 23.1338 18.6667H24.3822L23.1187 25.4053H23.1163ZM26.2208 17.0695C25.9408 17.3588 25.5675 17.4988 25.0822 17.4988H22.1655C22.1655 18.7857 21.119 19.8322 19.8322 19.8322C18.5453 19.8322 17.4988 18.7857 17.4988 17.4988H16.3322C16.3322 18.7857 15.2857 19.8322 13.9988 19.8322C12.712 19.8322 11.6655 18.7857 11.6655 17.4988H10.4988C10.4988 18.7857 9.45235 19.8322 8.16551 19.8322C6.87868 19.8322 5.83218 18.7857 5.83218 17.4988H2.91552C2.42902 17.4988 2.05685 17.3588 1.77685 17.0695C1.13518 16.4092 1.16435 15.1982 1.16552 15.1655C1.16552 9.37533 6.92302 4.6655 13.9988 4.6655C21.0747 4.6655 26.8322 9.37533 26.8322 15.1853C26.8322 15.1982 26.8613 16.4092 26.2208 17.0695Z" fill="#BD9675"/>
</g>
<path d="M40.8346 14.4634L41.3609 15.0832C41.5897 15.2821 41.8261 15.4963 42.0702 15.7258C42.3295 15.9554 42.5812 16.1849 42.8253 16.4144C43.0998 16.6899 43.382 16.9729 43.6719 17.2637C43.977 17.5391 44.282 17.8146 44.5871 18.09C44.8617 18.3501 45.1286 18.6256 45.3879 18.9163C45.6625 19.207 45.9066 19.4595 46.1201 19.6737C46.3642 19.9951 46.5701 20.194 46.7379 20.2705C46.921 20.3776 47.0811 20.5153 47.2184 20.6837C47.4015 20.9438 47.6226 21.158 47.882 21.3263C47.9582 21.3569 48.0345 21.3952 48.1108 21.4411C48.187 21.5023 48.2709 21.5635 48.3625 21.6247C48.5608 21.7318 48.7133 21.8619 48.8201 22.0149C48.8963 22.0914 48.965 22.1527 49.026 22.1986C49.1023 22.2598 49.1785 22.3133 49.2548 22.3592C49.3463 22.4204 49.4226 22.4663 49.4836 22.4969C49.5446 22.5429 49.6057 22.5811 49.6667 22.6117C49.7277 22.6423 49.7887 22.6729 49.8497 22.7035C49.9107 22.7494 49.9794 22.803 50.0556 22.8642C50.1319 22.9407 50.2082 22.9943 50.2845 23.0249C50.376 23.0708 50.4675 23.1167 50.559 23.1626C50.6506 23.1932 50.7421 23.2544 50.8336 23.3462C50.9251 23.438 51.009 23.5222 51.0853 23.5987C51.3599 23.8435 51.6192 24.0195 51.8632 24.1266C52.0005 24.2184 52.1226 24.3102 52.2293 24.402C52.3361 24.4938 52.4505 24.578 52.5726 24.6545C52.7556 24.884 52.9997 25.0524 53.3047 25.1595C53.503 25.2054 53.6327 25.2513 53.6937 25.2972C53.709 25.3431 53.8157 25.3661 54.0141 25.3661C54.1818 25.412 54.3191 25.4426 54.4259 25.4579C54.5327 25.4732 54.6318 25.4885 54.7234 25.5038C54.6623 25.5344 54.6623 25.5879 54.7234 25.6644C54.7844 25.7257 54.8149 25.7792 54.8149 25.8251C54.9217 25.8251 55.0056 25.8175 55.0666 25.8022C55.1428 25.8022 55.2191 25.7945 55.2954 25.7792C55.2496 25.8098 55.2725 25.8328 55.364 25.8481L55.4327 25.894C55.7835 25.8175 56.0352 25.7333 56.1877 25.6415L56.2335 25.5726C56.2335 25.542 56.3327 25.4732 56.531 25.3661C56.6835 25.1977 56.7903 24.9912 56.8513 24.7463C56.9123 24.5168 56.9581 24.2643 56.9886 23.9889L56.9428 23.7594C57.0038 23.6981 57.0877 23.6675 57.1945 23.6675C57.3013 23.6675 57.4004 23.7134 57.492 23.8053C57.5835 23.9124 57.6597 24.1189 57.7208 24.425C57.7513 24.5627 57.7665 24.7004 57.7665 24.8381C57.7665 24.9912 57.7741 25.1289 57.7894 25.2513C57.8504 25.3737 57.8809 25.4655 57.8809 25.5267C57.8962 25.6032 57.8886 25.6797 57.858 25.7563C57.8428 25.8328 57.8199 25.9322 57.7894 26.0546C57.8352 26.3913 57.7208 26.7585 57.4462 27.1564C57.4309 27.2788 57.4004 27.4012 57.3547 27.5236C57.3242 27.646 57.286 27.7685 57.2403 27.8909C57.164 28.0133 57.0801 28.1281 56.9886 28.2352C56.897 28.3576 56.8132 28.48 56.7369 28.6024L56.3021 28.9697C55.9971 29.1839 55.6767 29.3369 55.3411 29.4287C55.0056 29.5205 54.6623 29.5817 54.3115 29.6123L53.9912 29.5664C53.8081 29.5817 53.6174 29.5817 53.4191 29.5664C53.2361 29.5664 53.0378 29.5588 52.8242 29.5435L52.1607 29.4058C51.6268 29.2681 51.1234 29.0538 50.6506 28.7631C50.1624 28.4417 49.6743 28.0668 49.1862 27.6384C48.8811 27.3936 48.5531 27.1105 48.2023 26.7891C47.8667 26.4831 47.5235 26.1541 47.1727 25.8022C46.8371 25.4502 46.5015 25.083 46.1659 24.7004C45.8456 24.3179 45.5481 23.943 45.2735 23.5757C45.0295 23.2697 44.8007 22.9637 44.5871 22.6576C44.3736 22.3669 44.16 22.0838 43.9464 21.8084C43.8702 21.7165 43.7939 21.6171 43.7176 21.51C43.6566 21.4182 43.5956 21.3416 43.5346 21.2804C43.4583 21.2498 43.3897 21.181 43.3287 21.0739C43.2829 20.9821 43.2295 20.8902 43.1685 20.7984C43.0922 20.7066 43.0236 20.6072 42.9626 20.5C42.9015 20.4082 42.8405 20.3088 42.7795 20.2017C42.3066 19.5743 41.8795 18.9928 41.4982 18.4572C41.1168 17.9064 40.7812 17.4167 40.4914 16.9882C40.2626 16.7128 40.0338 16.445 39.805 16.1849C39.5914 15.9095 39.4008 15.6493 39.233 15.4045L38.9813 15.1291C38.9813 15.2209 38.9737 15.3203 38.9584 15.4274C38.9584 15.5193 38.9584 15.6187 38.9584 15.7258C38.9431 16.1237 38.9279 16.4833 38.9126 16.8046C38.9126 17.1107 38.8898 17.4167 38.844 17.7227C38.783 18.0288 38.7143 18.3119 38.6381 18.572C38.5771 18.8168 38.4932 19.0081 38.3864 19.1458L38.2491 19.6278C38.2186 19.7349 38.1804 19.8268 38.1347 19.9033C38.0889 19.9645 38.0508 20.0104 38.0203 20.041C37.9593 20.1175 37.8983 20.2552 37.8372 20.4541C37.761 20.6225 37.7152 20.7831 37.6999 20.9361C37.6847 21.0586 37.6618 21.1733 37.6313 21.2804C37.6161 21.4029 37.6008 21.51 37.5855 21.6018C37.5855 21.7089 37.5932 21.7854 37.6084 21.8313L37.6999 22.0149C37.7152 22.0761 37.7305 22.122 37.7457 22.1527C37.761 22.1986 37.7762 22.2445 37.7915 22.2904C37.7915 22.3363 37.7686 22.3669 37.7228 22.3822C37.6923 22.3975 37.6466 22.4204 37.5855 22.451C37.5093 22.4969 37.433 22.5199 37.3567 22.5199C37.25 22.5199 37.1432 22.5505 37.0364 22.6117C36.9754 22.627 36.922 22.627 36.8762 22.6117C36.8305 22.6117 36.7847 22.6194 36.739 22.6347C36.6017 22.6347 36.5406 22.6117 36.5559 22.5658C36.5864 22.5199 36.5559 22.4969 36.4644 22.4969L36.1898 22.7494C36.1593 22.78 36.0983 22.7953 36.0068 22.7953C35.8542 22.7953 35.7703 22.7647 35.7551 22.7035C35.7551 22.7035 35.7398 22.6959 35.7093 22.6806L35.6178 22.6117C35.511 22.5964 35.4119 22.5275 35.3203 22.4051C35.2746 22.3133 35.2364 22.2139 35.2059 22.1067C35.1754 22.0149 35.1525 21.8849 35.1373 21.7165C35.1068 21.5482 35.0839 21.3569 35.0686 21.1427C35.0534 20.9438 35.0381 20.7143 35.0229 20.4541C35.0381 20.3317 35.0381 20.2017 35.0229 20.0639C35.0229 19.9109 35.0153 19.7732 35 19.6508C35 19.6202 35.0076 19.5972 35.0229 19.5819C35.0229 19.3371 35.0305 19.0923 35.0458 18.8474C35.061 18.5873 35.0686 18.3654 35.0686 18.1818C35.0534 18.0441 35.0534 17.8605 35.0686 17.6309C35.0839 17.4014 35.122 17.103 35.183 16.7358C35.2288 16.292 35.2822 15.81 35.3432 15.2897C35.4195 14.7542 35.4958 14.2033 35.572 13.6371L35.8466 11.8468L35.961 10.6532C36.022 10.2095 36.083 9.75808 36.144 9.29902C36.2203 8.82466 36.289 8.35795 36.35 7.8989C36.35 7.82239 36.3652 7.73058 36.3957 7.62346C36.4262 7.51635 36.4568 7.40924 36.4873 7.30212C36.533 7.17971 36.5712 7.06494 36.6017 6.95783C36.6322 6.85071 36.6398 6.7589 36.6245 6.68239C36.5635 6.48347 36.5635 6.29984 36.6245 6.13152C36.7008 5.9632 36.7237 5.77958 36.6932 5.58065L36.6703 5.46589C36.6245 5.26696 36.6398 5.05274 36.7161 4.82321L36.7618 4.59368C36.7923 4.37945 36.8381 4.21878 36.8991 4.11167C36.9144 4.03516 36.9296 3.9663 36.9449 3.90509C36.9754 3.84388 37.0059 3.79033 37.0364 3.74442C37.0974 3.63731 37.1737 3.56845 37.2652 3.53785L37.3339 3.49194C37.3796 3.44603 37.4483 3.42308 37.5398 3.42308C37.6161 3.42308 37.6618 3.42308 37.6771 3.42308C37.6923 3.42308 37.7762 3.40778 37.9288 3.37717C37.9745 3.37717 38.0203 3.37717 38.066 3.37717C38.1118 3.36187 38.1576 3.35422 38.2033 3.35422C38.2643 3.35422 38.333 3.43073 38.4093 3.58375C38.5008 3.72147 38.5389 3.83623 38.5237 3.92804C38.5847 3.95865 38.6381 3.9969 38.6838 4.04281L39.0728 4.80025C39.1643 4.90737 39.2406 5.01448 39.3016 5.12159C39.3626 5.22871 39.4084 5.31287 39.4389 5.37408V5.51179L39.4847 5.83313L39.5304 6.13152C39.6067 6.05501 39.6753 5.97085 39.7364 5.87904C39.7974 5.77193 39.8736 5.66481 39.9652 5.5577L40.2626 5.21341C40.3084 5.1675 40.3389 5.1216 40.3541 5.07569C40.3846 5.02978 40.4152 4.99153 40.4457 4.96092C40.4914 4.85381 40.5524 4.73905 40.6287 4.61663C40.7202 4.49422 40.8194 4.3871 40.9262 4.29529C41.1397 4.03516 41.3304 3.86684 41.4982 3.79033C41.7117 3.66791 41.9939 3.55315 42.3448 3.44603C42.7109 3.33892 43.0465 3.30066 43.3515 3.33127L43.7176 3.23946H44.1753L44.5185 3.35422C44.9913 3.40013 45.3803 3.52254 45.6854 3.72147C46.0362 3.88979 46.3108 4.04281 46.5091 4.18053C46.7074 4.31824 46.8981 4.49422 47.0811 4.70844C47.1574 4.80025 47.2108 4.89207 47.2413 4.98388C47.2871 5.07569 47.3328 5.1828 47.3786 5.30522C47.4549 5.38173 47.5159 5.46589 47.5616 5.5577C47.6226 5.64951 47.6837 5.74132 47.7447 5.83313C47.8362 5.94025 47.9201 6.04736 47.9964 6.15448L48.1337 6.49877C48.1947 6.85071 48.2252 7.22561 48.2252 7.62346C48.1947 7.97541 48.126 8.32735 48.0192 8.6793C47.9277 9.01594 47.8133 9.32198 47.676 9.59741C47.554 9.84224 47.4167 10.0718 47.2642 10.286C47.1116 10.5002 46.9515 10.7068 46.7837 10.9057C46.4328 11.2883 46.1049 11.6173 45.7998 11.8927L45.2507 12.3747C45.0676 12.5124 44.8769 12.6348 44.6786 12.742C44.4956 12.8491 44.3125 12.9409 44.1295 13.0174C43.8549 13.0939 43.5498 13.2087 43.2143 13.3617L42.7338 13.5453L42.4134 13.7519C42.3372 13.7825 42.2304 13.836 42.0931 13.9126C41.9711 13.9738 41.8872 14.035 41.8414 14.0962L40.8346 14.4634ZM39.4847 12.3977C39.5304 12.4283 39.5762 12.4589 39.6219 12.4895C39.683 12.5048 39.7364 12.5277 39.7821 12.5583C39.8736 12.5889 39.9347 12.6042 39.9652 12.6042C40.0109 12.5277 40.0872 12.4971 40.194 12.5124H40.3313C40.3923 12.4971 40.4457 12.4665 40.4914 12.4206L40.5372 12.3747L40.5829 12.3518C40.7355 12.2906 40.8804 12.237 41.0177 12.1911C41.155 12.1299 41.2923 12.061 41.4295 11.9845C41.5363 11.9539 41.6278 11.9157 41.7041 11.8697C41.7804 11.8238 41.8719 11.7626 41.9787 11.6861C42.1922 11.5178 42.3829 11.3342 42.5507 11.1353C42.7338 10.921 42.9321 10.6762 43.1456 10.4008C43.4965 9.9111 43.7939 9.38318 44.038 8.81701C44.2973 8.25084 44.4803 7.67702 44.5871 7.09554L44.6558 6.61353C44.671 6.47582 44.6786 6.34575 44.6786 6.22333C44.6786 6.08562 44.6786 5.95555 44.6786 5.83313C44.6939 5.64951 44.6863 5.48119 44.6558 5.32817C44.6405 5.15985 44.6176 5.00683 44.5871 4.86911L44.4498 4.61663L44.3812 4.57072C44.2134 4.4024 44.0227 4.29529 43.8092 4.24938C43.6109 4.18818 43.3668 4.19583 43.077 4.27234L42.8939 4.41006L42.7338 4.54777C42.6575 4.62428 42.5507 4.73905 42.4134 4.89207C42.2914 5.04508 42.1694 5.20575 42.0473 5.37408C41.7422 5.64951 41.4906 5.95555 41.2923 6.29219C41.1397 6.62884 40.9948 6.95018 40.8575 7.25622C40.7355 7.54695 40.5982 7.82239 40.4457 8.08252C40.3694 8.22024 40.3007 8.3503 40.2397 8.47272C40.194 8.59513 40.1406 8.7405 40.0796 8.90882C40.0491 8.98533 40.0185 9.06184 39.988 9.13835C39.9728 9.19956 39.9499 9.26842 39.9194 9.34493C39.9194 9.36023 39.9118 9.37553 39.8965 9.39084C39.8965 9.39084 39.8965 9.40614 39.8965 9.43674L39.7821 9.91875C39.7211 10.3013 39.6448 10.7298 39.5533 11.2041C39.477 11.6785 39.4542 12.0763 39.4847 12.3977ZM40.5372 12.3747C40.5219 12.3747 40.499 12.39 40.4685 12.4206L40.5372 12.3747Z" fill="white"/>
<path d="M55.6659 14.7389C55.7575 14.6471 55.8337 14.6011 55.8948 14.6011C56.0931 14.6011 56.1998 14.7006 56.2151 14.8995C56.2303 15.0219 56.1846 15.1597 56.0778 15.3127C55.971 15.4657 55.8337 15.6493 55.6659 15.8636C55.6049 16.0013 55.4905 16.2155 55.3227 16.5062C55.1549 16.7817 54.9871 17.0189 54.8194 17.2178L54.7736 17.3784C54.7736 17.4244 54.7431 17.4779 54.6821 17.5391C54.621 17.6003 54.5829 17.6615 54.5677 17.7227C54.4914 17.8146 54.4075 17.914 54.316 18.0211C54.2397 18.1282 54.1558 18.2354 54.0643 18.3425C53.9422 18.4802 53.8202 18.6332 53.6982 18.8015C53.5762 18.9545 53.4618 19.1152 53.355 19.2835L53.1262 19.5819C52.9889 19.7502 52.844 19.9186 52.6914 20.0869C52.5541 20.2399 52.4016 20.3776 52.2338 20.5L51.8906 20.7296C51.494 20.9897 51.105 21.2116 50.7237 21.3952C50.3423 21.5941 49.9305 21.6859 49.4881 21.6706C49.3966 21.6706 49.2669 21.663 49.0991 21.6477C48.9466 21.6324 48.7788 21.6094 48.5957 21.5788C48.4127 21.5482 48.2296 21.5023 48.0466 21.4411C47.8788 21.3799 47.7263 21.3034 47.589 21.2116H47.6119C47.3983 21.1351 47.1771 20.9744 46.9483 20.7296C46.7195 20.4847 46.567 20.1098 46.4907 19.6049C46.3534 19.3907 46.2848 19.1994 46.2848 19.0311L46.239 18.9392C46.2237 18.7097 46.239 18.4725 46.2848 18.2277C46.3153 17.9829 46.3534 17.738 46.3992 17.4932V17.4014C46.4297 17.3402 46.4449 17.2866 46.4449 17.2407L46.4907 17.0112C46.5365 16.797 46.5898 16.5827 46.6509 16.3685C46.7119 16.1543 46.8034 15.9248 46.9254 15.6799L47.1771 15.3127L47.2 15.2668V15.2897C47.2458 15.1979 47.2992 15.0985 47.3602 14.9913C47.4364 14.8689 47.5127 14.7465 47.589 14.6241C47.6652 14.5017 47.7415 14.3946 47.8178 14.3028C47.8941 14.2109 47.9627 14.1421 48.0237 14.0962C48.2373 13.882 48.4737 13.6601 48.733 13.4305C48.9923 13.201 49.2212 13.071 49.4195 13.0403C49.4195 13.0403 49.4195 13.0174 49.4195 12.9715C49.3889 12.8644 49.3889 12.7879 49.4195 12.742C49.5872 12.5889 49.7855 12.4359 50.0144 12.2829C50.2432 12.1299 50.4186 12.0534 50.5406 12.0534C50.6169 12.0534 50.6779 12.0457 50.7237 12.0304C50.7999 12.0151 50.8838 12.0075 50.9754 12.0075C51.0669 12.0075 51.1279 12.0304 51.1584 12.0763C51.2194 12.061 51.2728 12.0534 51.3186 12.0534C51.3796 12.0534 51.433 12.0534 51.4787 12.0534C51.5398 12.0534 51.6618 12.0763 51.8448 12.1222C52.0431 12.1681 52.2491 12.2599 52.4626 12.3977C52.6914 12.5354 52.8974 12.7267 53.0804 12.9715C53.2634 13.201 53.3855 13.5071 53.4465 13.8896C53.4465 14.2415 53.3702 14.5782 53.2177 14.8995C53.2024 14.9454 53.1643 15.0296 53.1033 15.152C53.0423 15.2744 52.9736 15.4121 52.8974 15.5652C52.8211 15.7029 52.7296 15.8406 52.6228 15.9783C52.5313 16.116 52.4474 16.2308 52.3711 16.3226L52.2567 16.4144C52.0889 16.6287 51.9135 16.8276 51.7304 17.0112C51.5474 17.1948 51.3567 17.3708 51.1584 17.5391C51.0821 17.6156 50.9754 17.7151 50.8381 17.8375C50.7008 17.9599 50.5559 18.0823 50.4033 18.2048C50.2508 18.3272 50.1059 18.4419 49.9686 18.549C49.8313 18.6409 49.7322 18.7021 49.6711 18.7327L49.1449 19.0081C49.0076 19.1764 48.9313 19.3218 48.9161 19.4442C48.9008 19.5513 48.9084 19.689 48.939 19.8574L48.9847 20.2017C49 20.3241 49.0915 20.4159 49.2593 20.4771C49.4423 20.5536 49.633 20.5919 49.8313 20.5919C49.9991 20.5919 50.2279 20.5383 50.5177 20.4312C50.8228 20.3241 51.1508 20.1634 51.5016 19.9492C51.8525 19.7349 52.2186 19.4748 52.5999 19.1688C52.9812 18.8627 53.3321 18.5031 53.6524 18.09C53.6829 18.0135 53.7211 17.9446 53.7668 17.8834C53.8278 17.8069 53.8736 17.738 53.9041 17.6768L54.2244 17.1948C54.3617 17.0112 54.5066 16.8046 54.6592 16.5751C54.827 16.3303 54.9795 16.0931 55.1168 15.8636C55.2693 15.6187 55.399 15.3968 55.5058 15.1979C55.6126 14.999 55.6659 14.846 55.6659 14.7389ZM52.6457 14.3257C52.5999 14.2645 52.5236 14.2033 52.4169 14.1421C52.2948 14.1727 52.1194 14.2951 51.8906 14.5093C51.677 14.7083 51.4711 14.9301 51.2728 15.175L51.1126 15.2897L50.9754 15.5193L50.9067 15.657C50.4949 16.1772 50.1516 16.6746 49.8771 17.1489C49.6025 17.608 49.4271 17.9446 49.3508 18.1588C49.5796 18.0517 49.7855 17.914 49.9686 17.7457L50.1745 17.585L50.5635 17.3096C51.1431 16.8199 51.616 16.315 51.9821 15.7947C52.3635 15.2744 52.5846 14.7848 52.6457 14.3257Z" fill="white"/>
<path d="M63.84 14.4634C63.9773 14.3257 64.1069 14.2951 64.229 14.3716C64.3662 14.4328 64.4044 14.5705 64.3434 14.7848C64.3434 14.8766 64.2366 15.0526 64.023 15.3127C63.901 15.5116 63.779 15.7182 63.6569 15.9324C63.5349 16.1313 63.3824 16.3303 63.1993 16.5292L63.1536 16.621L63.062 16.7817C62.8942 16.95 62.6883 17.126 62.4442 17.3096C62.2154 17.4932 61.9409 17.6692 61.6205 17.8375L61.4604 17.9064C61.3688 17.9523 61.2621 17.9982 61.14 18.0441C61.0333 18.09 60.9188 18.1282 60.7968 18.1588C60.7511 18.1894 60.69 18.2201 60.6138 18.2507C60.5528 18.2813 60.4994 18.3042 60.4536 18.3195H60.2019C60.1867 18.6256 60.1104 18.9239 59.9731 19.2147C59.8358 19.5054 59.7214 19.7349 59.6299 19.9033C59.5841 19.9645 59.5155 20.0257 59.424 20.0869C59.3324 20.1328 59.2409 20.1787 59.1494 20.2246L58.9435 20.3623C58.8824 20.4082 58.7909 20.4541 58.6689 20.5C58.5469 20.5612 58.4096 20.6148 58.257 20.6607C58.1197 20.7066 57.9748 20.7449 57.8223 20.7755C57.685 20.8061 57.5706 20.8214 57.4791 20.8214C57.3876 20.8367 57.2732 20.8214 57.1359 20.7755C57.0138 20.7449 56.8994 20.7066 56.7927 20.6607C56.7774 20.6607 56.7393 20.6454 56.6782 20.6148C56.5257 20.6301 56.3427 20.5995 56.1291 20.523C55.9308 20.4618 55.7172 20.37 55.4884 20.2476L55.5113 20.2705C55.3283 20.1787 55.1681 20.0486 55.0308 19.8803C54.8935 19.712 54.8096 19.5207 54.7791 19.3065C54.7486 19.0923 54.7944 18.8933 54.9164 18.7097C55.0537 18.5261 55.2215 18.3731 55.4198 18.2507C55.5266 18.1435 55.6867 18.0517 55.9003 17.9752C56.1139 17.8834 56.335 17.8146 56.5638 17.7686C56.7927 17.7074 56.9986 17.6692 57.1816 17.6539C57.3799 17.6386 57.5172 17.6539 57.5935 17.6998C57.7003 17.6386 57.7689 17.5238 57.7994 17.3555C57.7994 17.3402 57.7994 17.3249 57.7994 17.3096C57.8147 17.2943 57.8223 17.279 57.8223 17.2637C57.8833 17.1413 57.9062 17.0418 57.8909 16.9653C57.8909 16.8429 57.9138 16.7128 57.9596 16.5751C57.9901 16.468 58.013 16.3609 58.0282 16.2538C58.0435 16.1313 58.0282 16.0089 57.9825 15.8865L58.1197 14.8536C58.074 14.7618 58.0435 14.67 58.0282 14.5782C58.0282 14.4864 58.0206 14.3946 58.0053 14.3028C58.0053 14.1191 57.9672 13.9432 57.8909 13.7748C57.8604 13.6524 57.8299 13.53 57.7994 13.4076C57.7842 13.2852 57.7384 13.1551 57.6621 13.0174C57.6316 12.9868 57.5935 12.9026 57.5477 12.7649C57.502 12.7802 57.4181 12.8873 57.296 13.0863C57.1893 13.2852 57.052 13.5377 56.8842 13.8437C56.6859 14.1956 56.4647 14.5858 56.2206 15.0143C55.9918 15.4274 55.7478 15.787 55.4884 16.0931C55.4427 16.1543 55.4045 16.1619 55.374 16.116C55.3435 16.0701 55.3206 16.0013 55.3054 15.9095C55.3054 15.8023 55.3206 15.6876 55.3512 15.5652C55.3817 15.4274 55.4274 15.2974 55.4884 15.175C55.5342 15.0985 55.6334 14.9148 55.7859 14.6241C55.9384 14.3334 56.1062 14.0197 56.2893 13.683C56.4723 13.3311 56.6401 12.9944 56.7927 12.6731C56.9452 12.3518 57.0443 12.1299 57.0901 12.0075L56.9528 9.43674C56.9833 9.31433 57.0443 9.18426 57.1359 9.04654C57.2426 8.89352 57.357 8.7558 57.4791 8.63339C57.5553 8.54158 57.624 8.44977 57.685 8.35795C57.7613 8.25084 57.8147 8.15903 57.8452 8.08252L57.9367 7.99071C58.1808 7.74588 58.3486 7.60816 58.4401 7.57756C58.5316 7.53165 58.6613 7.5699 58.8291 7.69232L58.9206 7.76118C58.9968 7.80709 59.0807 7.86064 59.1723 7.92185C59.2638 7.96776 59.3629 8.03661 59.4697 8.12843C59.607 8.29675 59.7367 8.47272 59.8587 8.65634C59.996 8.82466 60.0875 9.01594 60.1333 9.23017L60.2019 9.5056C60.2172 9.55151 60.2324 9.60506 60.2477 9.66627C60.2629 9.71218 60.2782 9.77338 60.2934 9.84989C60.3239 10.0182 60.2706 10.2095 60.1333 10.4237C60.0112 10.6379 59.8663 10.8522 59.6985 11.0664C59.607 11.1888 59.5155 11.3189 59.424 11.4566C59.3477 11.579 59.2867 11.6938 59.2409 11.8009C59.3019 11.8927 59.3858 12.0534 59.4926 12.2829C59.5994 12.4971 59.7062 12.7267 59.8129 12.9715C59.9197 13.201 60.0189 13.4305 60.1104 13.6601C60.2019 13.8743 60.2706 14.035 60.3163 14.1421L60.6138 14.4175L60.8655 15.1061C60.9417 15.1673 60.9722 15.2132 60.957 15.2438C60.9417 15.2744 60.9188 15.3203 60.8883 15.3815C60.8731 15.3968 60.8578 15.4198 60.8426 15.4504C60.8426 15.481 60.8502 15.504 60.8655 15.5193L60.8883 15.6111L60.9341 15.7488C60.9341 15.8253 60.9494 15.9248 60.9799 16.0472C61.0104 16.1696 61.0256 16.2691 61.0256 16.3456C61.0256 16.4221 61.0104 16.4909 60.9799 16.5521C60.9646 16.6593 60.8883 16.8046 60.7511 16.9882C60.69 17.0648 60.6366 17.1566 60.5909 17.2637C60.5451 17.3555 60.5146 17.4473 60.4994 17.5391L60.9799 17.3784C61.1171 17.3478 61.2468 17.3019 61.3688 17.2407C61.4909 17.1795 61.5976 17.1107 61.6892 17.0342H61.6663L61.7349 16.9882C62.1315 16.7128 62.4671 16.4144 62.7417 16.0931C63.0163 15.7564 63.2832 15.3892 63.5425 14.9913C63.634 14.8536 63.7332 14.6777 63.84 14.4634ZM57.4562 18.4113C57.4409 18.396 57.3494 18.4037 57.1816 18.4343C57.0291 18.4649 56.846 18.5184 56.6325 18.5949C56.4189 18.6715 56.2054 18.7709 55.9918 18.8933C55.7783 19.0005 55.6257 19.1305 55.5342 19.2835C55.5037 19.3753 55.5495 19.4672 55.6715 19.559C55.7935 19.6355 55.9384 19.6737 56.1062 19.6737C56.2283 19.6737 56.3808 19.6355 56.5638 19.559C57.052 19.36 57.3494 18.9775 57.4562 18.4113Z" fill="white"/>
<path d="M68.6813 6.384C68.5897 6.79716 68.483 7.22561 68.3609 7.66937C68.2389 8.11312 68.1016 8.59513 67.9491 9.1154L69.8482 9.20721C69.9092 9.22251 69.9778 9.22251 70.0541 9.20721C70.1456 9.17661 70.2295 9.16896 70.3058 9.18426C70.9617 9.24547 71.5109 9.34493 71.9532 9.48265C72.4109 9.62036 72.7769 9.78103 73.0515 9.96466C73.3413 10.1483 73.5549 10.3396 73.6922 10.5385C73.8295 10.7374 73.9134 10.921 73.9439 11.0894C73.9591 11.2118 73.9286 11.2806 73.8523 11.2959C73.7761 11.3112 73.7074 11.3112 73.6464 11.2959C73.6159 11.3112 73.5854 11.3189 73.5549 11.3189C73.5396 11.3036 73.5168 11.2959 73.4863 11.2959C73.4557 11.1582 73.3413 11.0281 73.143 10.9057C72.9447 10.768 72.6931 10.6456 72.388 10.5385C72.0829 10.4161 71.7244 10.3166 71.3126 10.2401C70.916 10.1483 70.5041 10.0794 70.077 10.0335C70.0007 10.0488 69.9397 10.0488 69.8939 10.0335C69.8482 10.0182 69.7948 10.0106 69.7338 10.0106L67.7431 9.91875C67.6211 10.4237 67.5296 10.944 67.4686 11.4795C67.4228 11.9998 67.316 12.5048 67.1482 12.9944L67.194 13.5224C67.011 14.1038 66.8203 14.67 66.622 15.2209C66.4389 15.7564 66.2711 16.2614 66.1186 16.7358C65.9661 17.2101 65.844 17.6462 65.7525 18.0441C65.661 18.4419 65.6305 18.7862 65.661 19.077C65.661 19.23 65.7144 19.3753 65.8211 19.5131C65.9279 19.4825 66.0576 19.406 66.2101 19.2835C66.3779 19.1458 66.5533 18.9851 66.7364 18.8015C66.9347 18.6179 67.133 18.4113 67.3313 18.1818C67.5448 17.9523 67.7431 17.7227 67.9262 17.4932C68.155 17.2025 68.4143 16.8888 68.7041 16.5521C68.994 16.2155 69.1999 15.8865 69.3219 15.5652C69.3372 15.5499 69.3982 15.4274 69.505 15.1979C69.627 14.9684 69.7643 14.7159 69.9168 14.4405C70.0694 14.165 70.2143 13.9202 70.3516 13.706C70.5041 13.4765 70.6109 13.3617 70.6719 13.3617C70.7482 13.3617 70.8016 13.4152 70.8321 13.5224C70.8321 13.5683 70.8092 13.6371 70.7634 13.7289C70.7939 13.7595 70.8092 13.8131 70.8092 13.8896C70.7634 14.2109 70.5422 14.7236 70.1456 15.4274C69.749 16.116 69.2075 16.8964 68.5211 17.7686L67.6974 18.8015C67.3008 19.2453 66.9042 19.6355 66.5076 19.9721C66.111 20.3088 65.7678 20.4771 65.4779 20.4771C65.1576 20.4771 64.9059 20.4082 64.7229 20.2705C64.5551 20.1175 64.4178 19.9262 64.311 19.6967C64.189 19.5896 64.0593 19.4748 63.922 19.3524C63.7847 19.2147 63.6551 19.077 63.5331 18.9392C63.411 18.8015 63.3042 18.6715 63.2127 18.549C63.1364 18.4113 63.0907 18.2813 63.0754 18.1588C63.0449 17.761 63.1059 17.2101 63.2585 16.5062C63.411 15.787 63.6398 15.0219 63.9449 14.2109L63.922 13.9814C63.983 13.7672 64.0288 13.5606 64.0593 13.3617C64.1051 13.1628 64.1661 12.9638 64.2424 12.7649C64.3796 12.3059 64.4788 11.8315 64.5398 11.3418C64.6161 10.8522 64.7076 10.3549 64.8144 9.84989L63.4873 9.68922C62.9839 9.64332 62.511 9.57446 62.0687 9.48265C61.6111 9.39084 61.2221 9.28372 60.9017 9.16131C60.5662 9.03889 60.2992 8.89352 60.1009 8.7252C59.8874 8.55688 59.773 8.38091 59.7577 8.19729C59.7577 8.12077 59.7958 8.08252 59.8721 8.08252C59.9026 8.06722 59.9331 8.05957 59.9636 8.05957C59.9941 8.05957 60.0399 8.09017 60.1009 8.15138L60.4212 8.08252C60.7721 8.23554 61.1839 8.37326 61.6568 8.49567C62.1297 8.60279 62.7246 8.68695 63.4415 8.74815C63.7619 8.77876 64.0517 8.79406 64.311 8.79406C64.5856 8.79406 64.8373 8.80936 65.0661 8.83997L65.0432 8.97768L65.661 7.32507C65.7067 7.15675 65.7601 6.99608 65.8211 6.84306C65.8974 6.69004 65.9508 6.52937 65.9813 6.36105C66.0423 5.9785 66.0881 5.5883 66.1186 5.19045C66.1644 4.7926 66.2025 4.44066 66.233 4.13462C66.2635 3.82858 66.3093 3.5761 66.3703 3.37717C66.4313 3.17825 66.5305 3.07879 66.6677 3.07879C66.7745 3.07879 66.9118 3.11704 67.0796 3.19355C67.2626 3.27006 67.4381 3.38483 67.6059 3.53785C67.7737 3.67556 67.9262 3.85918 68.0635 4.08871C68.2008 4.31824 68.2847 4.57838 68.3152 4.86911C68.3152 4.93032 68.3152 4.99153 68.3152 5.05274C68.3152 5.11394 68.3075 5.1828 68.2923 5.25931C68.3228 5.32052 68.3533 5.40468 68.3838 5.51179C68.4143 5.61891 68.4448 5.73367 68.4753 5.85609C68.5058 5.9632 68.5363 6.07032 68.5669 6.17743C68.5974 6.26924 68.6355 6.3381 68.6813 6.384Z" fill="white"/>
<path d="M72.7912 19.3294C72.715 19.3907 72.6235 19.4442 72.5167 19.4901C72.4252 19.536 72.3184 19.5896 72.1963 19.6508L72.2192 19.6737L72.2421 19.7196C72.2421 19.7043 72.265 19.7196 72.3107 19.7655C72.3565 19.7962 72.3946 19.8268 72.4252 19.8574C72.4862 19.888 72.5396 19.9262 72.5853 19.9721C72.6311 20.018 72.6616 20.0563 72.6768 20.0869L72.7226 20.2246L72.7455 20.2476C72.8828 20.4159 73.0048 20.5842 73.1116 20.7525C73.2336 20.9361 73.3251 21.1274 73.3862 21.3263L73.4319 22.2674C73.4624 22.5122 73.4853 22.7494 73.5006 22.979C73.5158 23.2085 73.5234 23.4304 73.5234 23.6446C73.5234 24.6698 73.3328 25.4655 72.9514 26.0317C72.5853 26.6132 72.1277 26.9651 71.5786 27.0875C71.5633 27.0875 71.548 27.0875 71.5328 27.0875C71.5328 27.1028 71.5252 27.1105 71.5099 27.1105H71.487C71.0904 27.0187 70.7701 26.8886 70.526 26.7203C70.282 26.552 70.076 26.3224 69.9082 26.0317C69.7405 25.7563 69.5879 25.4196 69.4506 25.0218C69.3133 24.6239 69.1608 24.1572 68.993 23.6216V23.4151C68.9625 23.262 68.9549 23.132 68.9701 23.0249L68.8328 22.2215L68.7413 21.6936C68.7108 21.51 68.6803 21.3569 68.6498 21.2345V21.2575L68.6269 21.1198C68.6117 21.0127 68.604 20.9055 68.604 20.7984C68.5888 20.6913 68.5812 20.5842 68.5812 20.4771L68.5354 19.8803L68.604 17.9064L68.5583 17.7227C68.5735 17.6768 68.5812 17.6233 68.5812 17.5621C68.5659 17.5009 68.5506 17.4397 68.5354 17.3784V16.598C68.5354 16.0472 68.5659 15.4274 68.6269 14.7389C68.6879 14.035 68.7871 13.3234 68.9244 12.6042C69.0006 12.1299 69.0922 11.6402 69.1989 11.1353C69.3057 10.615 69.4201 10.1024 69.5422 9.59741C69.6642 9.09245 69.7938 8.61044 69.9311 8.15138C70.0837 7.67702 70.2286 7.24091 70.3659 6.84306C70.6099 6.24629 70.9455 5.74132 71.3726 5.32817C71.815 4.91502 72.2802 4.55542 72.7684 4.24938C73.0582 4.08106 73.3633 3.92804 73.6836 3.79033C74.0039 3.65261 74.3395 3.5455 74.6904 3.46899C74.7361 3.45368 74.7895 3.44603 74.8505 3.44603C74.9115 3.44603 74.9726 3.44603 75.0336 3.44603C75.3844 3.44603 75.72 3.5608 76.0403 3.79033C76.3759 4.01986 76.6276 4.45596 76.7954 5.09864C76.8412 5.23636 76.8641 5.37408 76.8641 5.51179C76.8641 5.63421 76.8488 5.74897 76.8183 5.85609C76.803 5.9632 76.7802 6.07797 76.7496 6.20038C76.7191 6.3228 76.6886 6.46051 76.6581 6.61353C76.6429 6.75125 76.6276 6.91957 76.6124 7.1185L76.2234 7.37098C76.2081 7.41689 76.2005 7.49339 76.2005 7.60051C76.2005 7.70762 76.1852 7.84534 76.1547 8.01366C76.1242 8.18198 76.0251 8.42681 75.8573 8.74815H75.8802L75.6742 9.20721C75.6132 9.28372 75.5522 9.39083 75.4912 9.52855C75.4454 9.65097 75.392 9.78103 75.331 9.91875C75.2548 10.0871 75.1785 10.2477 75.1022 10.4008C75.0412 10.5538 74.9726 10.6838 74.8963 10.791L74.5531 11.1812L74.3014 11.5255C74.2709 11.5714 74.2327 11.6249 74.187 11.6861C74.1565 11.732 74.1183 11.7779 74.0726 11.8238L73.798 12.1681C73.6302 12.3212 73.47 12.4895 73.3175 12.6731C73.1802 12.8567 73.0734 13.0021 72.9972 13.1092L72.6997 13.201C72.6235 13.3387 72.5548 13.4535 72.4938 13.5453C72.4633 13.5912 72.4328 13.6524 72.4023 13.7289C72.3718 13.7901 72.3336 13.882 72.2879 14.0044C72.2726 14.0503 72.2345 14.1268 72.1735 14.2339C72.1277 14.3257 72.0743 14.4175 72.0133 14.5093C71.9523 14.6164 71.8836 14.7695 71.8074 14.9684C71.7616 15.0755 71.7311 15.2209 71.7158 15.4045C71.7006 15.5728 71.693 15.7564 71.693 15.9554L71.6243 16.7358L71.5328 17.0571V17.1489C71.5328 17.1795 71.5252 17.2025 71.5099 17.2178C71.5099 17.2331 71.5175 17.256 71.5328 17.2866C71.548 17.3172 71.5633 17.3555 71.5786 17.4014C71.5938 17.432 71.6014 17.455 71.6014 17.4703C71.6319 17.5468 71.6472 17.6692 71.6472 17.8375C71.6472 17.914 71.6396 17.9829 71.6243 18.0441C71.6243 18.1053 71.6243 18.1741 71.6243 18.2507C71.6091 18.3272 71.6014 18.396 71.6014 18.4572C71.6014 18.5184 71.6014 18.5873 71.6014 18.6638C71.6014 18.7097 71.6014 18.7633 71.6014 18.8245C71.6167 18.8704 71.6243 18.9163 71.6243 18.9622C71.6396 18.9775 71.6472 18.9928 71.6472 19.0081L71.693 18.9851L72.1277 18.8933C72.3718 18.7709 72.776 18.5337 73.3404 18.1818C73.9048 17.8146 74.4997 17.2484 75.1251 16.4833L75.331 16.2078L76.292 14.7618C76.3073 14.7312 76.3225 14.693 76.3378 14.647C76.353 14.6011 76.353 14.5476 76.3378 14.4864C76.4141 14.3946 76.498 14.3334 76.5895 14.3028C76.681 14.2722 76.7649 14.2569 76.8412 14.2569C76.9174 14.2875 76.9632 14.3563 76.9785 14.4634C76.9785 14.5552 76.9327 14.693 76.8412 14.8766L76.7954 14.9454C76.8107 14.9607 76.8183 14.976 76.8183 14.9913C76.8183 15.0679 76.7954 15.1291 76.7496 15.175V15.152L76.6124 15.3586L76.4293 15.5881V15.5652L76.3607 15.7947L76.2463 15.9554C76.2158 16.0778 76.1242 16.2461 75.9717 16.4603C75.8344 16.6593 75.6971 16.8276 75.5598 16.9653L75.1709 17.5621C75.0793 17.7304 74.9115 17.8911 74.6675 18.0441C74.4387 18.1818 74.2175 18.3348 74.0039 18.5031L73.5692 18.8933C73.4624 18.9851 73.3404 19.0617 73.2031 19.1229C73.0658 19.1688 72.9285 19.2376 72.7912 19.3294ZM72.0362 12.7649V12.8338L72.0591 12.7879C72.1201 12.7573 72.265 12.6425 72.4938 12.4436C72.7379 12.2446 72.9972 12.0075 73.2717 11.732C73.5616 11.4413 73.8361 11.1276 74.0955 10.791C74.37 10.439 74.5607 10.1024 74.6675 9.78103C74.8505 9.5209 75.026 9.22251 75.1937 8.88587C75.3768 8.54923 75.5446 8.20493 75.6971 7.85299C75.8497 7.50105 75.9717 7.1491 76.0632 6.79716C76.1547 6.42991 76.2005 6.09327 76.2005 5.78723C76.2005 5.61891 76.1776 5.45059 76.1319 5.28227C76.0556 4.97623 75.8954 4.72375 75.6514 4.52482C75.4226 4.32589 75.1556 4.24938 74.8505 4.29529C74.576 4.3412 74.3777 4.41005 74.2556 4.50187C74.1488 4.59368 74.0421 4.7314 73.9353 4.91502L73.7522 5.25931C73.7522 5.27461 73.7446 5.28992 73.7294 5.30522C73.7294 5.30522 73.7294 5.31287 73.7294 5.32817C73.7141 5.41998 73.676 5.50414 73.615 5.58065C73.4014 5.9785 73.226 6.43756 73.0887 6.95783C72.9514 7.46279 72.8218 7.96775 72.6997 8.47272C72.6845 8.57983 72.6616 8.68695 72.6311 8.79406C72.6158 8.88587 72.6006 8.98533 72.5853 9.09245C72.509 9.39849 72.448 9.71983 72.4023 10.0565C72.3565 10.3931 72.3184 10.7145 72.2879 11.0205C72.2574 11.2959 72.2269 11.5714 72.1963 11.8468C72.1658 12.1069 72.1201 12.3518 72.0591 12.5813L72.0362 12.7649ZM72.0591 21.028C72.0133 20.9361 71.9523 20.8596 71.876 20.7984C71.815 20.7372 71.7463 20.676 71.6701 20.6148C71.6243 20.9361 71.6014 21.3187 71.6014 21.7625C71.6014 22.3133 71.6243 22.8718 71.6701 23.438C71.7311 24.0195 71.8074 24.4785 71.8989 24.8152V24.907L71.9675 25.0906L72.0362 25.3431C72.0667 25.4349 72.1048 25.5114 72.1506 25.5726C72.1963 25.6491 72.2345 25.6797 72.265 25.6644C72.387 25.6338 72.4633 25.542 72.4938 25.389C72.5243 25.236 72.5548 25.0677 72.5853 24.884C72.5853 24.8687 72.5853 24.8534 72.5853 24.8381C72.6006 24.8381 72.6082 24.8305 72.6082 24.8152L72.6311 24.5168C72.6463 24.3944 72.6463 24.2567 72.6311 24.1036C72.6311 23.9506 72.6235 23.7976 72.6082 23.6446C72.5929 23.5222 72.5777 23.3921 72.5624 23.2544C72.5624 23.132 72.5624 23.0096 72.5624 22.8871C72.5472 22.8565 72.5396 22.8183 72.5396 22.7724C72.5396 22.7418 72.5396 22.7112 72.5396 22.6806V22.6347L72.5167 22.2445C72.4862 22.2139 72.4709 22.1909 72.4709 22.1756C72.4709 22.1603 72.4633 22.145 72.448 22.1297V22.1067L72.3794 21.8313C72.3489 21.7395 72.3107 21.64 72.265 21.5329C72.2192 21.4258 72.1658 21.311 72.1048 21.1886L72.0819 21.1198L72.0591 21.028Z" fill="white"/>
<path d="M81.6322 18.7097C81.4797 18.7097 81.3271 18.6791 81.1746 18.6179C81.1441 18.6791 81.106 18.725 81.0602 18.7556C81.0297 18.7862 80.9916 18.8168 80.9458 18.8474C80.8848 18.8933 80.8238 18.9545 80.7627 19.0311C80.7017 19.0923 80.6483 19.1994 80.6026 19.3524C80.4958 19.5666 80.3356 19.7732 80.1221 19.9721C79.9238 20.1557 79.7026 20.3164 79.4585 20.4541C79.2145 20.5919 78.9552 20.699 78.6806 20.7755C78.4213 20.8673 78.1848 20.9132 77.9713 20.9132H77.9026C77.8874 20.9132 77.8721 20.9055 77.8569 20.8902C77.8416 20.8902 77.8264 20.8902 77.8111 20.8902L77.4908 20.7984L77.1247 20.6148H77.0103C76.4764 20.5383 75.9883 20.2629 75.5459 19.7885C75.1188 19.2988 74.8747 18.7174 74.8137 18.0441C74.7985 17.8146 74.8061 17.608 74.8366 17.4244C74.8518 17.2254 74.8747 17.0265 74.9052 16.8276C74.9052 16.797 74.9129 16.774 74.9281 16.7587C74.9281 16.7281 74.9281 16.6975 74.9281 16.6669C74.8976 16.3915 74.951 16.0548 75.0883 15.657C75.2103 15.2438 75.3934 14.8307 75.6374 14.4175C75.8967 13.9891 76.2018 13.5912 76.5527 13.224C76.9035 12.8414 77.2848 12.543 77.6967 12.3288L77.8111 12.237C78.0552 12.0687 78.3145 11.9463 78.5891 11.8697C78.8636 11.7932 79.1077 11.755 79.3212 11.755C79.4433 11.755 79.5577 11.7626 79.6645 11.7779C79.7712 11.7932 79.878 11.8238 79.9848 11.8697C80.4272 12.084 80.7856 12.3212 81.0602 12.5813C81.35 12.8414 81.5178 13.1934 81.5636 13.6371V13.6601C81.5788 13.7366 81.5712 13.8207 81.5407 13.9126C81.5102 14.0044 81.35 14.0503 81.0602 14.0503H80.9C80.4272 14.0962 79.9772 14.3028 79.5501 14.67C79.1229 15.0373 78.7416 15.4734 78.406 15.9783C78.0857 16.4833 77.8264 17.0112 77.6281 17.5621C77.445 18.1129 77.3535 18.5949 77.3535 19.0081C77.3535 19.1305 77.3916 19.2682 77.4679 19.4213C77.5594 19.5743 77.6586 19.7196 77.7653 19.8574C77.8874 19.9798 78.0094 20.0869 78.1314 20.1787C78.2535 20.2705 78.3679 20.3164 78.4747 20.3164C78.5509 20.3164 78.6119 20.3011 78.6577 20.2705C78.7035 20.2399 78.7569 20.2093 78.8179 20.1787C78.8636 20.1481 78.917 20.1175 78.978 20.0869C79.039 20.041 79.1077 20.0027 79.184 19.9721C79.3212 19.9109 79.4662 19.7962 79.6187 19.6278C79.7712 19.4595 79.9085 19.2835 80.0306 19.0999C80.1678 18.901 80.2822 18.7097 80.3738 18.5261C80.4805 18.3425 80.5492 18.2048 80.5797 18.1129C80.3509 17.8222 80.206 17.585 80.145 17.4014C80.0839 17.2178 80.0534 17.0418 80.0534 16.8735C80.0534 16.7664 80.0534 16.6593 80.0534 16.5521C80.0687 16.445 80.0687 16.3226 80.0534 16.1849C80.0229 15.8176 80.0687 15.5116 80.1907 15.2668C80.3128 15.0066 80.4958 14.8766 80.7399 14.8766C80.7704 14.8766 80.7933 14.8766 80.8085 14.8766C80.8238 14.8613 80.8466 14.8536 80.8772 14.8536C80.9992 14.8383 81.1136 14.846 81.2204 14.8766C81.3271 14.8919 81.3958 14.9607 81.4263 15.0832H81.4721C81.4873 15.0985 81.5178 15.1597 81.5636 15.2668C81.6246 15.3586 81.6627 15.4657 81.678 15.5881C81.6932 15.6187 81.7009 15.6723 81.7009 15.7488C81.7314 15.8253 81.7619 15.8712 81.7924 15.8865C81.8229 15.9018 81.8229 15.9707 81.7924 16.0931C81.7619 16.2614 81.7543 16.3685 81.7695 16.4144V16.4833C81.7695 16.4986 81.7619 16.5139 81.7466 16.5292C81.7466 16.5445 81.7466 16.5598 81.7466 16.5751V16.621L81.7695 16.598V16.621C81.7848 16.6363 81.7924 16.6746 81.7924 16.7358C81.7924 16.797 81.8 16.8582 81.8153 16.9194C81.8305 16.9653 81.8382 17.0189 81.8382 17.0801L81.7924 17.2866C81.7619 17.3937 81.7237 17.5009 81.678 17.608C81.6475 17.6998 81.6017 17.7992 81.5407 17.9064L81.5636 17.9523C81.5941 17.9982 81.6322 18.0441 81.678 18.09C81.7237 18.1206 81.8305 18.1359 81.9983 18.1359C82.1356 18.1359 82.311 18.0823 82.5246 17.9752C82.7534 17.8528 82.9364 17.7074 83.0737 17.5391C83.2873 17.279 83.5161 16.9576 83.7601 16.5751C84.0195 16.1925 84.2254 15.8559 84.3779 15.5652C84.3932 15.5499 84.4161 15.504 84.4466 15.4274C84.4771 15.3509 84.5152 15.2515 84.561 15.1291C84.6525 14.8995 84.7517 14.67 84.8584 14.4405C84.9652 14.1956 85.0796 14.0732 85.2016 14.0732C85.3542 14.0732 85.4457 14.165 85.4762 14.3487L85.3618 14.6241H85.3847C85.2779 15.0985 85.0949 15.6034 84.8356 16.139C84.5762 16.6593 84.2712 17.1336 83.9203 17.5621C83.5847 17.9752 83.211 18.3042 82.7991 18.549C82.4025 18.7786 82.0136 18.8321 81.6322 18.7097ZM80.9458 17.2866V17.3555C80.9763 17.279 80.9992 17.2025 81.0144 17.126C81.0297 17.0495 81.0449 16.9729 81.0602 16.8964V16.621C81.0449 16.5292 81.0221 16.445 80.9916 16.3685C80.9763 16.292 80.9229 16.2461 80.8314 16.2308C80.8161 16.2308 80.8009 16.2538 80.7856 16.2997C80.7704 16.3456 80.7627 16.3915 80.7627 16.4374C80.7627 16.468 80.7551 16.5062 80.7399 16.5521C80.7399 16.5827 80.7475 16.6593 80.7627 16.7817V16.8046C80.7933 16.8352 80.8161 16.8888 80.8314 16.9653C80.8619 17.0265 80.8848 17.0954 80.9 17.1719L80.9458 17.2866Z" fill="white"/>
<path d="M86.5244 19.4442C86.1736 19.4136 85.8685 19.2912 85.6092 19.077C85.3651 18.8474 85.1592 18.5949 84.9914 18.3195C84.8389 18.0441 84.7169 17.7763 84.6253 17.5162C84.5491 17.256 84.5033 17.0648 84.488 16.9423C84.4423 16.621 84.4194 16.2767 84.4194 15.9095C84.4194 15.0526 84.5338 14.1191 84.7626 13.1092C84.7626 13.0174 84.7702 12.8414 84.7855 12.5813C84.8008 12.3212 84.8236 12.0228 84.8541 11.6861C84.8999 11.3495 84.9457 11.0128 84.9914 10.6762C85.0524 10.3243 85.1058 10.0259 85.1516 9.78103C85.1516 9.4903 85.1745 9.19191 85.2202 8.88587C85.2813 8.56453 85.3499 8.28144 85.4262 8.03661C85.4872 7.80709 85.5406 7.57756 85.5863 7.34803C85.6473 7.1032 85.6855 6.85071 85.7007 6.59058C85.7007 6.57528 85.7084 6.50642 85.7236 6.384C85.7541 6.24629 85.7923 6.09327 85.838 5.92495L85.7694 5.76428C85.7694 5.68777 85.777 5.64186 85.7923 5.62656C85.838 5.24401 85.8838 4.83851 85.9295 4.41006C85.9753 3.9816 86.0363 3.5914 86.1126 3.23946C86.1889 2.87221 86.2728 2.57382 86.3643 2.34429C86.4711 2.11476 86.5931 2 86.7304 2C86.8982 2 87.1499 2.09946 87.4854 2.29839C87.8363 2.48201 88.1185 2.77275 88.332 3.1706C88.5456 3.29301 88.7592 3.49194 88.9727 3.76737C89.1863 4.04281 89.3312 4.3718 89.4074 4.75435C89.4532 5.01448 89.4151 5.36643 89.293 5.81018C89.171 6.23864 89.0261 6.713 88.8583 7.23326V7.30212C88.8736 7.37863 88.8812 7.44749 88.8812 7.5087C88.8964 7.5699 88.9041 7.63876 88.9041 7.71527L88.2863 9.82694C88.3168 10.0106 88.3397 10.2324 88.3549 10.4926C88.3702 10.7374 88.3854 10.9363 88.4007 11.0894C88.4007 11.12 88.4007 11.1506 88.4007 11.1812C88.4159 11.1965 88.4236 11.2194 88.4236 11.25V11.3418L87.76 13.3617C87.76 13.4382 87.7676 13.4994 87.7829 13.5453V13.5912L87.8287 13.8437C87.8439 13.8896 87.8515 13.9891 87.8515 14.1421C87.8515 14.2339 87.8668 14.3563 87.8973 14.5093C87.7905 14.8154 87.6914 15.1061 87.5999 15.3815C87.5236 15.6417 87.4473 15.9018 87.371 16.1619L87.4854 16.9194C87.2871 17.4703 87.2033 17.8834 87.2338 18.1588C87.2643 18.266 87.3177 18.3195 87.3939 18.3195C87.4854 18.3195 87.638 18.2124 87.8515 17.9982C88.0803 17.7686 88.3244 17.4779 88.5837 17.126C88.8431 16.774 89.1024 16.3838 89.3617 15.9554C89.6363 15.5269 89.8803 15.1061 90.0939 14.693H90.071C90.1015 14.6471 90.1168 14.6011 90.1168 14.5552C90.132 14.5093 90.1473 14.4711 90.1625 14.4405L90.2312 14.165V14.188C90.2617 14.1268 90.3074 14.0426 90.3684 13.9355C90.4295 13.8131 90.4905 13.683 90.5515 13.5453C90.6583 13.3311 90.7574 13.1322 90.8489 12.9485C90.9405 12.7649 91.0167 12.6731 91.0778 12.6731H91.1235C91.1998 12.5966 91.2837 12.5583 91.3752 12.5583C91.482 12.5583 91.5583 12.6119 91.604 12.719C91.604 12.7955 91.5735 12.9256 91.5125 13.1092C91.4667 13.2775 91.3142 13.5989 91.0549 14.0732H91.0778L90.9862 14.3028C90.8489 14.67 90.643 15.1061 90.3684 15.6111C90.1091 16.1007 89.8193 16.5904 89.499 17.0801C89.5142 17.0648 89.499 17.0877 89.4532 17.1489C89.4227 17.1948 89.3922 17.2331 89.3617 17.2637C89.2397 17.4473 89.11 17.6386 88.9727 17.8375C88.8507 18.0364 88.721 18.2201 88.5837 18.3884C88.4464 18.5567 88.3092 18.7021 88.1719 18.8245C88.0346 18.9316 87.9126 18.9851 87.8058 18.9851C87.7905 18.9851 87.7753 18.9851 87.76 18.9851C87.7448 18.9698 87.7295 18.9622 87.7143 18.9622C87.4702 19.1152 87.2566 19.2376 87.0736 19.3294C86.8905 19.406 86.7075 19.4442 86.5244 19.4442Z" fill="white"/>
<path d="M95.3018 14.9913C95.4391 14.8536 95.584 14.8077 95.7365 14.8536C95.8891 14.8842 95.9119 15.0219 95.8052 15.2668C95.8357 15.328 95.8357 15.3739 95.8052 15.4045C95.7899 15.4045 95.7823 15.4121 95.7823 15.4274C95.6908 15.5499 95.6145 15.6723 95.5535 15.7947L95.3704 16.116C95.2331 16.3762 95.073 16.6593 94.8899 16.9653C94.7221 17.256 94.5315 17.5621 94.3179 17.8834V17.8605C94.2874 17.9217 94.2721 17.9829 94.2721 18.0441V18.067L94.112 18.3195C93.9747 18.5337 93.8298 18.748 93.6772 18.9622C93.5247 19.1611 93.3569 19.36 93.1739 19.559L92.9679 19.7885C92.7849 20.018 92.5866 20.2399 92.373 20.4541L92.2586 20.523C92.0908 20.6301 91.9383 20.7296 91.801 20.8214C91.6637 20.9132 91.5264 20.9897 91.3891 21.0509V21.028C91.2214 21.1198 91.0536 21.1733 90.8858 21.1886C90.7332 21.2192 90.5807 21.2269 90.4281 21.2116C90.0315 21.1351 89.696 20.9591 89.4214 20.6837C89.1621 20.4082 88.9714 20.1022 88.8494 19.7655C88.7883 19.5972 88.7502 19.4213 88.735 19.2376C88.7045 19.054 88.6739 18.878 88.6434 18.7097C88.6282 18.6332 88.6206 18.5567 88.6206 18.4802C88.6053 18.3884 88.5977 18.3042 88.5977 18.2277C88.5977 18.1512 88.6053 18.0823 88.6206 18.0211C88.6206 17.9599 88.6206 17.8911 88.6206 17.8146V17.4014C88.6511 17.1566 88.6892 16.9194 88.735 16.6899C88.7807 16.4603 88.8341 16.2155 88.8951 15.9554L88.9638 15.6799C89.0095 15.5269 89.0553 15.3739 89.1011 15.2209C89.1468 15.0679 89.2002 14.9072 89.2612 14.7389C89.3985 14.4022 89.5282 14.0732 89.6502 13.7519C89.7722 13.4152 89.879 13.0939 89.9705 12.7879C89.9858 12.7573 89.9934 12.7114 89.9934 12.6501C90.0697 12.2676 90.2146 12.0381 90.4281 11.9616H90.4053C90.4968 11.9004 90.5883 11.8697 90.6798 11.8697C90.7714 11.8544 90.8934 11.8621 91.0459 11.8927C91.29 11.9386 91.5417 12.1222 91.801 12.4436C92.0756 12.7496 92.251 13.1551 92.3273 13.6601C92.3425 13.7825 92.3349 13.9202 92.3044 14.0732C92.2739 14.2109 92.2357 14.3563 92.19 14.5093L92.1442 14.693C92.1442 14.7083 92.1518 14.7236 92.1671 14.7389L92.19 14.8077C92.2205 14.8995 92.2357 14.9837 92.2357 15.0602V15.3356C92.2357 15.3815 92.2357 15.4274 92.2357 15.4734C92.251 15.5193 92.2586 15.5652 92.2586 15.6111C92.2129 15.7947 92.1595 15.9707 92.0985 16.139C92.0374 16.3073 91.9764 16.4603 91.9154 16.598L91.7552 16.9423C91.7552 16.9729 91.7552 16.9959 91.7552 17.0112C91.7705 17.0265 91.7781 17.0495 91.7781 17.0801C91.6561 17.3861 91.5493 17.6998 91.4578 18.0211C91.3663 18.3272 91.2976 18.6256 91.2519 18.9163V18.9392C91.2671 18.9698 91.2747 19.0005 91.2747 19.0311C91.2747 19.0464 91.2519 19.077 91.2061 19.1229L91.0917 19.2147C90.9239 19.5207 90.84 19.7732 90.84 19.9721C90.84 20.1557 90.9315 20.2705 91.1146 20.3164C91.2061 20.2858 91.3205 20.217 91.4578 20.1098C91.6103 20.0027 91.7781 19.865 91.9612 19.6967C92.0985 19.6202 92.2281 19.5207 92.3501 19.3983C92.4722 19.2606 92.5942 19.1305 92.7162 19.0081L92.8764 18.8245C93.2272 18.396 93.5552 17.9446 93.8603 17.4703C94.1654 16.9806 94.4704 16.4756 94.7755 15.9554C94.8976 15.7717 94.9967 15.6111 95.073 15.4734C95.1493 15.3203 95.2255 15.1597 95.3018 14.9913ZM92.8078 8.49567C92.5179 8.46507 92.2129 8.3503 91.8925 8.15138C91.7247 8.02896 91.5798 7.83769 91.4578 7.57756C91.3358 7.31742 91.2747 7.02669 91.2747 6.70535C91.2595 6.46051 91.2824 6.26159 91.3434 6.10857C91.4197 5.95555 91.5188 5.81783 91.6408 5.69542C91.9764 5.38938 92.3273 5.23636 92.6934 5.23636C92.8612 5.22106 93.0823 5.26696 93.3569 5.37408C93.6467 5.48119 93.8984 5.61126 94.112 5.76428C94.1882 5.84079 94.2493 5.90965 94.295 5.97085C94.3408 6.03206 94.3713 6.10092 94.3865 6.17743C94.4171 6.31515 94.4094 6.42991 94.3637 6.52172C94.3332 6.61353 94.2798 6.713 94.2035 6.82011V6.79716C94.173 6.87367 94.1349 6.95018 94.0891 7.02669C94.0586 7.08789 94.0128 7.1644 93.9518 7.25622V7.23326C93.9213 7.30977 93.8755 7.39393 93.8145 7.48574C93.7688 7.56225 93.7306 7.63876 93.7001 7.71527C93.4866 8.05192 93.3264 8.26614 93.2196 8.35795C93.1281 8.44977 92.9908 8.49567 92.8078 8.49567Z" fill="white"/>
<path d="M101.37 19.0081C101.294 19.0081 101.218 19.0081 101.141 19.0081C101.08 18.9928 101.012 18.9698 100.935 18.9392L100.89 19.0081L100.707 19.2606C100.676 19.3065 100.615 19.3524 100.523 19.3983C100.447 19.4442 100.394 19.5284 100.363 19.6508C100.348 19.6661 100.34 19.6814 100.34 19.6967V19.7196C100.279 19.8421 100.165 19.9798 99.9972 20.1328C99.8294 20.2858 99.6692 20.4006 99.5167 20.4771C99.4709 20.5077 99.4252 20.5383 99.3794 20.5689C99.3337 20.5995 99.2955 20.6301 99.265 20.6607C99.1582 20.7372 99.0591 20.7984 98.9676 20.8443C98.876 20.9055 98.754 20.9514 98.6015 20.9821C98.4032 21.0586 98.2125 21.1045 98.0294 21.1198C97.8616 21.1351 97.671 21.1351 97.4574 21.1198L97.2286 21.028L96.9312 20.8673L96.8168 20.8214C96.7862 20.8214 96.7557 20.8137 96.7252 20.7984C96.71 20.7984 96.6947 20.7984 96.6795 20.7984C96.6032 20.7984 96.5041 20.7831 96.382 20.7525C95.9244 20.5383 95.5202 20.2323 95.1693 19.8344C94.788 19.3753 94.5744 18.8245 94.5287 18.1818C94.5287 18.0594 94.5363 17.8987 94.5515 17.6998C94.5515 17.4856 94.5515 17.2713 94.5515 17.0571C94.5668 16.8429 94.582 16.6363 94.5973 16.4374C94.6278 16.2385 94.6507 16.0778 94.6659 15.9554C94.6965 15.5575 94.7727 15.1903 94.8948 14.8536C94.9863 14.6088 95.1007 14.3716 95.238 14.1421C95.3905 13.9126 95.543 13.6907 95.6956 13.4765C95.9091 13.1398 96.138 12.8491 96.382 12.6042V12.6272C96.5498 12.4283 96.7329 12.2523 96.9312 12.0993C97.1295 11.9463 97.3354 11.8085 97.5489 11.6861L97.6862 11.6173C97.8845 11.4795 98.0752 11.3801 98.2583 11.3189C98.4566 11.2424 98.6549 11.1888 98.8532 11.1582C99.0667 11.1276 99.2421 11.1276 99.3794 11.1582C99.532 11.1735 99.6921 11.2118 99.8599 11.273L99.9286 11.3189C100.157 11.4413 100.379 11.5637 100.592 11.6861C100.806 11.7932 100.996 11.9233 101.164 12.0763C101.347 12.214 101.484 12.3747 101.576 12.5583C101.683 12.742 101.736 12.9485 101.736 13.1781C101.767 13.2546 101.729 13.3311 101.622 13.4076C101.53 13.4688 101.347 13.4841 101.073 13.4535C100.89 13.4688 100.668 13.5224 100.409 13.6142C100.165 13.706 99.9133 13.8207 99.654 13.9585C99.3947 14.0962 99.143 14.2569 98.8989 14.4405C98.6701 14.6088 98.4794 14.7771 98.3269 14.9454C98.1591 15.175 97.9989 15.4274 97.8464 15.7029C97.6939 15.963 97.5642 16.2385 97.4574 16.5292C97.4269 16.6057 97.3964 16.7587 97.3659 16.9882C97.3354 17.2178 97.3049 17.4397 97.2744 17.6539L97.2057 18.067V18.1588C97.16 18.3578 97.1218 18.549 97.0913 18.7327C97.0608 18.9163 97.0456 19.077 97.0456 19.2147C97.0456 19.3677 97.0913 19.5513 97.1828 19.7655C97.2744 19.9645 97.3735 20.0792 97.4803 20.1098C97.6633 20.2017 97.8693 20.2476 98.0981 20.2476C98.2201 20.2476 98.3498 20.2323 98.4871 20.2017C98.6243 20.171 98.7616 20.1328 98.8989 20.0869C98.9752 20.0563 99.0362 20.018 99.082 19.9721C99.1277 19.9109 99.1811 19.8421 99.2421 19.7655C99.2879 19.7043 99.326 19.6431 99.3565 19.5819C99.4023 19.5207 99.4557 19.4748 99.5167 19.4442C99.7303 19.2759 99.9057 19.0846 100.043 18.8704C100.18 18.6409 100.264 18.4572 100.295 18.3195C100.081 18.1818 99.8675 17.9217 99.654 17.5391C99.4557 17.1413 99.326 16.7358 99.265 16.3226C99.3108 15.9095 99.3718 15.5958 99.4481 15.3815C99.5243 15.1673 99.6006 15.0143 99.6769 14.9225C99.7684 14.8154 99.8599 14.7542 99.9514 14.7389C100.058 14.7236 100.165 14.7159 100.272 14.7159C100.44 14.7159 100.63 14.7618 100.844 14.8536C101.057 14.9301 101.187 15.0832 101.233 15.3127H101.324C101.37 15.3586 101.393 15.4504 101.393 15.5881C101.423 15.6646 101.439 15.7335 101.439 15.7947C101.454 15.8559 101.454 15.9477 101.439 16.0701C101.439 16.0701 101.454 16.0854 101.484 16.116L101.553 16.2078C101.629 16.2997 101.66 16.3838 101.645 16.4603C101.629 16.5215 101.606 16.598 101.576 16.6899L101.53 16.8735L101.553 17.0342L101.599 17.3784C101.599 17.4244 101.545 17.5468 101.439 17.7457C101.347 17.9293 101.263 18.0976 101.187 18.2507H101.301C101.362 18.266 101.431 18.2736 101.507 18.2736C101.675 18.3042 101.851 18.2583 102.034 18.1359C102.232 17.9982 102.415 17.8222 102.583 17.608C102.751 17.4244 102.926 17.2331 103.109 17.0342C103.292 16.8199 103.483 16.5827 103.681 16.3226C103.712 16.2614 103.727 16.2385 103.727 16.2538C103.803 16.1619 103.864 16.0625 103.91 15.9554C103.971 15.8483 104.039 15.7411 104.116 15.634C104.329 15.2668 104.551 14.8995 104.779 14.5323C104.84 14.4864 104.909 14.4634 104.985 14.4634C105.062 14.4481 105.13 14.4634 105.191 14.5093C105.252 14.5399 105.283 14.6011 105.283 14.693C105.298 14.7695 105.26 14.8766 105.168 15.0143L105.191 14.9913C105.054 15.4045 104.825 15.8483 104.505 16.3226C104.2 16.797 103.864 17.2407 103.498 17.6539C103.132 18.0517 102.758 18.3884 102.377 18.6638C101.995 18.9239 101.66 19.0387 101.37 19.0081ZM100.615 17.7227L100.707 17.5162L100.821 17.1719C100.836 17.1107 100.859 17.0648 100.89 17.0342C100.92 16.9882 100.935 16.9423 100.935 16.8964C100.935 16.8811 100.935 16.8735 100.935 16.8735C100.951 16.8582 100.958 16.8429 100.958 16.8276L100.844 16.3226C100.813 16.1237 100.722 15.9477 100.569 15.7947C100.539 15.7794 100.501 15.7641 100.455 15.7488C100.424 15.7182 100.386 15.7029 100.34 15.7029C100.34 15.6876 100.318 15.7029 100.272 15.7488C100.272 15.7488 100.257 15.81 100.226 15.9324C100.241 15.963 100.241 16.0089 100.226 16.0701C100.211 16.116 100.196 16.1619 100.18 16.2078C100.165 16.2844 100.15 16.3915 100.134 16.5292C100.134 16.6669 100.196 16.9041 100.318 17.2407V17.4014L100.615 17.7227Z" fill="white"/>
<defs>
<clipPath id="clip0_4337_587">
<rect width="28" height="28" fill="white"/>
</clipPath>
</defs>
</svg>
